<svg width="183" height="162" viewBox="0 0 183 162" fill="none" xmlns="http://www.w3.org/2000/svg">
<mask id="mask0_48_378" style="mask-type:alpha" maskUnits="userSpaceOnUse" x="0" y="12" width="176" height="51">
<rect y="12" width="176" height="51" fill="#D9D9D9"/>
</mask>
<g mask="url(#mask0_48_378)">
<path d="M122.15 21.8C121.75 25.3 121.45 28.7 121.25 32C121.15 35.3 121.1 37.8 121.1 39.5C121.1 41.3 121.15 43.05 121.25 44.75C121.35 46.35 121.45 47.7 121.55 48.8H118.1C117.5 42.9 116.65 38.25 115.55 34.85C114.45 31.35 112.55 28.9 109.85 27.5C107.25 26 103.3 25.25 98 25.25H85.55C82.15 25.25 79.55 25.55 77.75 26.15C76.05 26.65 74.9 27.8 74.3 29.6C73.7 31.3 73.4 34 73.4 37.7V112.1C73.4 115.7 73.7 118.4 74.3 120.2C74.9 122 76.05 123.2 77.75 123.8C79.55 124.3 82.15 124.55 85.55 124.55H96.5C102.8 124.55 107.55 123.7 110.75 122C114.05 120.3 116.4 117.55 117.8 113.75C119.3 109.85 120.4 104.6 121.1 98H124.55C124.25 100.7 124.1 104.3 124.1 108.8C124.1 110.7 124.15 113.45 124.25 117.05C124.45 120.55 124.75 124.2 125.15 128C120.05 127.8 114.3 127.7 107.9 127.7C101.5 127.6 95.8 127.55 90.8 127.55C88.6 127.55 85.75 127.55 82.25 127.55C78.85 127.55 75.15 127.6 71.15 127.7C67.15 127.7 63.1 127.75 59 127.85C54.9 127.85 51 127.9 47.3 128V125C50.7 124.8 53.25 124.4 54.95 123.8C56.75 123.2 57.95 122 58.55 120.2C59.15 118.4 59.45 115.7 59.45 112.1V37.7C59.45 34 59.15 31.3 58.55 29.6C57.95 27.8 56.75 26.6 54.95 26C53.25 25.3 50.7 24.9 47.3 24.8V21.8C51 21.9 54.9 22 59 22.1C63.1 22.1 67.15 22.15 71.15 22.25C75.15 22.25 78.85 22.25 82.25 22.25C85.75 22.25 88.6 22.25 90.8 22.25C95.4 22.25 100.6 22.25 106.4 22.25C112.3 22.15 117.55 22 122.15 21.8ZM96.35 73.1C96.35 73.1 96.35 73.6 96.35 74.6C96.35 75.6 96.35 76.1 96.35 76.1H68.9C68.9 76.1 68.9 75.6 68.9 74.6C68.9 73.6 68.9 73.1 68.9 73.1H96.35ZM100.7 53.3C100.3 59 100.1 63.35 100.1 66.35C100.2 69.35 100.25 72.1 100.25 74.6C100.25 77.1 100.3 79.85 100.4 82.85C100.5 85.85 100.75 90.2 101.15 95.9H97.7C97.3 92.7 96.8 89.6 96.2 86.6C95.7 83.5 94.5 81 92.6 79.1C90.8 77.1 87.7 76.1 83.3 76.1V73.1C86.6 73.1 89.1 72.45 90.8 71.15C92.6 69.75 93.9 68 94.7 65.9C95.5 63.8 96.05 61.65 96.35 59.45C96.65 57.15 96.95 55.1 97.25 53.3H100.7Z" fill="black"/>
</g>
<mask id="mask1_48_378" style="mask-type:alpha" maskUnits="userSpaceOnUse" x="0" y="85" width="176" height="51">
<rect y="85" width="176" height="51" fill="#D9D9D9"/>
</mask>
<g mask="url(#mask1_48_378)">
<path d="M122.15 21.8C121.75 25.3 121.45 28.7 121.25 32C121.15 35.3 121.1 37.8 121.1 39.5C121.1 41.3 121.15 43.05 121.25 44.75C121.35 46.35 121.45 47.7 121.55 48.8H118.1C117.5 42.9 116.65 38.25 115.55 34.85C114.45 31.35 112.55 28.9 109.85 27.5C107.25 26 103.3 25.25 98 25.25H85.55C82.15 25.25 79.55 25.55 77.75 26.15C76.05 26.65 74.9 27.8 74.3 29.6C73.7 31.3 73.4 34 73.4 37.7V112.1C73.4 115.7 73.7 118.4 74.3 120.2C74.9 122 76.05 123.2 77.75 123.8C79.55 124.3 82.15 124.55 85.55 124.55H96.5C102.8 124.55 107.55 123.7 110.75 122C114.05 120.3 116.4 117.55 117.8 113.75C119.3 109.85 120.4 104.6 121.1 98H124.55C124.25 100.7 124.1 104.3 124.1 108.8C124.1 110.7 124.15 113.45 124.25 117.05C124.45 120.55 124.75 124.2 125.15 128C120.05 127.8 114.3 127.7 107.9 127.7C101.5 127.6 95.8 127.55 90.8 127.55C88.6 127.55 85.75 127.55 82.25 127.55C78.85 127.55 75.15 127.6 71.15 127.7C67.15 127.7 63.1 127.75 59 127.85C54.9 127.85 51 127.9 47.3 128V125C50.7 124.8 53.25 124.4 54.95 123.8C56.75 123.2 57.95 122 58.55 120.2C59.15 118.4 59.45 115.7 59.45 112.1V37.7C59.45 34 59.15 31.3 58.55 29.6C57.95 27.8 56.75 26.6 54.95 26C53.25 25.3 50.7 24.9 47.3 24.8V21.8C51 21.9 54.9 22 59 22.1C63.1 22.1 67.15 22.15 71.15 22.25C75.15 22.25 78.85 22.25 82.25 22.25C85.75 22.25 88.6 22.25 90.8 22.25C95.4 22.25 100.6 22.25 106.4 22.25C112.3 22.15 117.55 22 122.15 21.8ZM96.35 73.1C96.35 73.1 96.35 73.6 96.35 74.6C96.35 75.6 96.35 76.1 96.35 76.1H68.9C68.9 76.1 68.9 75.6 68.9 74.6C68.9 73.6 68.9 73.1 68.9 73.1H96.35ZM100.7 53.3C100.3 59 100.1 63.35 100.1 66.35C100.2 69.35 100.25 72.1 100.25 74.6C100.25 77.1 100.3 79.85 100.4 82.85C100.5 85.85 100.75 90.2 101.15 95.9H97.7C97.3 92.7 96.8 89.6 96.2 86.6C95.7 83.5 94.5 81 92.6 79.1C90.8 77.1 87.7 76.1 83.3 76.1V73.1C86.6 73.1 89.1 72.45 90.8 71.15C92.6 69.75 93.9 68 94.7 65.9C95.5 63.8 96.05 61.65 96.35 59.45C96.65 57.15 96.95 55.1 97.25 53.3H100.7Z" fill="black"/>
</g>
<path d="M39.656 68.672C39.6133 69.0453 39.5813 69.408 39.56 69.76C39.5493 70.112 39.544 70.3787 39.544 70.56C39.544 70.752 39.5493 70.9387 39.56 71.12C39.5707 71.2907 39.5813 71.4347 39.592 71.552H39.224C39.16 70.9227 39.0693 70.4267 38.952 70.064C38.8347 69.6907 38.632 69.4293 38.344 69.28C38.0667 69.12 37.6453 69.04 37.08 69.04H35.752C35.3893 69.04 35.112 69.072 34.92 69.136C34.7387 69.1893 34.616 69.312 34.552 69.504C34.488 69.6853 34.456 69.9733 34.456 70.368V78.304C34.456 78.688 34.488 78.976 34.552 79.168C34.616 79.36 34.7387 79.488 34.92 79.552C35.112 79.6053 35.3893 79.632 35.752 79.632H36.92C37.592 79.632 38.0987 79.5413 38.44 79.36C38.792 79.1787 39.0427 78.8853 39.192 78.48C39.352 78.064 39.4693 77.504 39.544 76.8H39.912C39.88 77.088 39.864 77.472 39.864 77.952C39.864 78.1547 39.8693 78.448 39.88 78.832C39.9013 79.2053 39.9333 79.5947 39.976 80C39.432 79.9787 38.8187 79.968 38.136 79.968C37.4533 79.9573 36.8453 79.952 36.312 79.952C36.0773 79.952 35.7733 79.952 35.4 79.952C35.0373 79.952 34.6427 79.9573 34.216 79.968C33.7893 79.968 33.3573 79.9733 32.92 79.984C32.4827 79.984 32.0667 79.9893 31.672 80V79.68C32.0347 79.6587 32.3067 79.616 32.488 79.552C32.68 79.488 32.808 79.36 32.872 79.168C32.936 78.976 32.968 78.688 32.968 78.304V70.368C32.968 69.9733 32.936 69.6853 32.872 69.504C32.808 69.312 32.68 69.184 32.488 69.12C32.3067 69.0453 32.0347 69.0027 31.672 68.992V68.672C32.0667 68.6827 32.4827 68.6933 32.92 68.704C33.3573 68.704 33.7893 68.7093 34.216 68.72C34.6427 68.72 35.0373 68.72 35.4 68.72C35.7733 68.72 36.0773 68.72 36.312 68.72C36.8027 68.72 37.3573 68.72 37.976 68.72C38.6053 68.7093 39.1653 68.6933 39.656 68.672ZM36.904 74.144C36.904 74.144 36.904 74.1973 36.904 74.304C36.904 74.4107 36.904 74.464 36.904 74.464H33.976C33.976 74.464 33.976 74.4107 33.976 74.304C33.976 74.1973 33.976 74.144 33.976 74.144H36.904ZM37.368 72.032C37.3253 72.64 37.304 73.104 37.304 73.424C37.3147 73.744 37.32 74.0373 37.32 74.304C37.32 74.5707 37.3253 74.864 37.336 75.184C37.3467 75.504 37.3733 75.968 37.416 76.576H37.048C37.0053 76.2347 36.952 75.904 36.888 75.584C36.8347 75.2533 36.7067 74.9867 36.504 74.784C36.312 74.5707 35.9813 74.464 35.512 74.464V74.144C35.864 74.144 36.1307 74.0747 36.312 73.936C36.504 73.7867 36.6427 73.6 36.728 73.376C36.8133 73.152 36.872 72.9227 36.904 72.688C36.936 72.4427 36.968 72.224 37 72.032H37.368ZM51.694 67.456V78.256C51.694 78.736 51.7793 79.0933 51.95 79.328C52.1313 79.552 52.4513 79.664 52.91 79.664V80C52.5793 79.968 52.2487 79.952 51.918 79.952C51.6087 79.952 51.31 79.968 51.022 80C50.7447 80.032 50.4887 80.0907 50.254 80.176V69.376C50.254 68.896 50.1687 68.544 49.998 68.32C49.8273 68.0853 49.5073 67.968 49.038 67.968V67.632C49.3793 67.664 49.71 67.68 50.03 67.68C50.3393 67.68 50.6327 67.664 50.91 67.632C51.198 67.5893 51.4593 67.5307 51.694 67.456ZM48.334 71.536C48.8033 71.536 49.2407 71.648 49.646 71.872C50.062 72.096 50.3393 72.48 50.478 73.024L50.27 73.184C50.1207 72.736 49.886 72.4107 49.566 72.208C49.2567 72.0053 48.8887 71.904 48.462 71.904C47.8327 71.904 47.3047 72.2293 46.878 72.88C46.462 73.5307 46.2593 74.5333 46.27 75.888C46.27 76.752 46.35 77.472 46.51 78.048C46.6807 78.6133 46.926 79.04 47.246 79.328C47.5767 79.6053 47.9767 79.744 48.446 79.744C48.894 79.744 49.2993 79.552 49.662 79.168C50.0247 78.784 50.2433 78.2187 50.318 77.472L50.51 77.696C50.4247 78.5067 50.1633 79.1307 49.726 79.568C49.2993 80.0053 48.718 80.224 47.982 80.224C47.3207 80.224 46.7393 80.064 46.238 79.744C45.7473 79.424 45.3687 78.944 45.102 78.304C44.846 77.664 44.718 76.8587 44.718 75.888C44.718 74.9173 44.8833 74.112 45.214 73.472C45.5553 72.8213 45.998 72.336 46.542 72.016C47.0967 71.696 47.694 71.536 48.334 71.536ZM64.1749 71.584V78.272C64.1749 78.752 64.2602 79.1093 64.4309 79.344C64.6122 79.568 64.9322 79.68 65.3909 79.68V80.016C65.0602 79.984 64.7295 79.968 64.3989 79.968C64.0895 79.968 63.7909 79.984 63.5029 80.016C63.2255 80.048 62.9695 80.1067 62.7349 80.192V78.304C62.4682 78.9973 62.0895 79.4933 61.5989 79.792C61.1189 80.08 60.6229 80.224 60.1109 80.224C59.7375 80.224 59.4122 80.1707 59.1349 80.064C58.8575 79.9573 58.6282 79.808 58.4469 79.616C58.2442 79.4027 58.1055 79.1253 58.0309 78.784C57.9562 78.4427 57.9189 78.0213 57.9189 77.52V73.504C57.9189 73.024 57.8335 72.672 57.6629 72.448C57.4922 72.2133 57.1722 72.096 56.7029 72.096V71.76C57.0442 71.792 57.3749 71.808 57.6949 71.808C58.0042 71.808 58.2975 71.792 58.5749 71.76C58.8629 71.7173 59.1242 71.6587 59.3589 71.584V77.872C59.3589 78.2027 59.3802 78.5067 59.4229 78.784C59.4655 79.0613 59.5722 79.2853 59.7429 79.456C59.9135 79.6267 60.1909 79.712 60.5749 79.712C60.9909 79.712 61.3589 79.584 61.6789 79.328C62.0095 79.072 62.2655 78.7253 62.4469 78.288C62.6389 77.8507 62.7349 77.36 62.7349 76.816V73.504C62.7349 73.024 62.6495 72.672 62.4789 72.448C62.3082 72.2133 61.9882 72.096 61.5189 72.096V71.76C61.8602 71.792 62.1909 71.808 62.5109 71.808C62.8202 71.808 63.1135 71.792 63.3909 71.76C63.6789 71.7173 63.9402 71.6587 64.1749 71.584ZM69.6157 68.672C69.8397 68.6827 70.1331 68.6933 70.4957 68.704C70.8584 68.7147 71.2157 68.72 71.5677 68.72C72.0691 68.72 72.5491 68.7147 73.0077 68.704C73.4664 68.6933 73.7917 68.688 73.9837 68.688C75.2744 68.688 76.2397 68.9813 76.8797 69.568C77.5197 70.1547 77.8397 70.912 77.8397 71.84C77.8397 72.224 77.7757 72.6293 77.6477 73.056C77.5197 73.472 77.2957 73.8613 76.9757 74.224C76.6664 74.576 76.2397 74.864 75.6957 75.088C75.1517 75.312 74.4637 75.424 73.6317 75.424H72.0957V75.104H73.4717C74.2291 75.104 74.8051 74.96 75.1997 74.672C75.6051 74.384 75.8771 74.0053 76.0157 73.536C76.1651 73.0667 76.2397 72.56 76.2397 72.016C76.2397 71.0027 76.0371 70.2453 75.6317 69.744C75.2371 69.2427 74.5544 68.992 73.5837 68.992C73.0931 68.992 72.7731 69.0827 72.6237 69.264C72.4744 69.4453 72.3997 69.8133 72.3997 70.368V78.304C72.3997 78.688 72.4371 78.976 72.5117 79.168C72.5971 79.36 72.7571 79.488 72.9917 79.552C73.2264 79.616 73.5677 79.6587 74.0157 79.68V80C73.7384 79.9787 73.3864 79.968 72.9597 79.968C72.5331 79.9573 72.1011 79.952 71.6637 79.952C71.2477 79.952 70.8584 79.9573 70.4957 79.968C70.1331 79.968 69.8397 79.9787 69.6157 80V79.68C69.9784 79.6587 70.2504 79.616 70.4317 79.552C70.6237 79.488 70.7517 79.36 70.8157 79.168C70.8797 78.976 70.9117 78.688 70.9117 78.304V70.368C70.9117 69.9733 70.8797 69.6853 70.8157 69.504C70.7517 69.312 70.6237 69.184 70.4317 69.12C70.2504 69.0453 69.9784 69.0027 69.6157 68.992V68.672ZM86.9431 71.536C87.2311 71.536 87.4818 71.5947 87.6951 71.712C87.9191 71.8293 88.0898 71.984 88.2071 72.176C88.3351 72.3573 88.3991 72.5653 88.3991 72.8C88.3991 73.0667 88.3138 73.3013 88.1431 73.504C87.9831 73.7067 87.7645 73.808 87.4871 73.808C87.2631 73.808 87.0658 73.7387 86.8951 73.6C86.7245 73.4507 86.6391 73.2427 86.6391 72.976C86.6391 72.7733 86.6925 72.6027 86.7991 72.464C86.9165 72.3147 87.0445 72.1973 87.1831 72.112C87.1085 72.0053 86.9965 71.952 86.8471 71.952C86.5165 71.952 86.2125 72.0533 85.9351 72.256C85.6578 72.448 85.4231 72.6987 85.2311 73.008C85.0391 73.3173 84.8898 73.648 84.7831 74C84.6765 74.3413 84.6231 74.6613 84.6231 74.96V78.352C84.6231 78.8747 84.7725 79.2267 85.0711 79.408C85.3805 79.5787 85.7965 79.664 86.3191 79.664V80C86.0738 79.9893 85.7271 79.9787 85.2791 79.968C84.8311 79.9467 84.3565 79.936 83.8551 79.936C83.4925 79.936 83.1298 79.9467 82.7671 79.968C82.4151 79.9787 82.1485 79.9893 81.9671 80V79.664C82.4045 79.664 82.7138 79.584 82.8951 79.424C83.0871 79.264 83.1831 78.96 83.1831 78.512V73.504C83.1831 73.024 83.0978 72.672 82.9271 72.448C82.7565 72.2133 82.4365 72.096 81.9671 72.096V71.76C82.3085 71.792 82.6391 71.808 82.9591 71.808C83.2685 71.808 83.5618 71.792 83.8391 71.76C84.1271 71.7173 84.3885 71.6587 84.6231 71.584V73.584C84.7405 73.2747 84.9058 72.9653 85.1191 72.656C85.3431 72.336 85.6098 72.0693 85.9191 71.856C86.2285 71.6427 86.5698 71.536 86.9431 71.536ZM95.8676 71.536C96.8063 71.536 97.537 71.824 98.0596 72.4C98.593 72.9653 98.8596 73.8507 98.8596 75.056H93.2116L93.1956 74.752H97.3236C97.345 74.2293 97.3023 73.7493 97.1956 73.312C97.089 72.864 96.9183 72.5067 96.6836 72.24C96.4596 71.9733 96.1663 71.84 95.8036 71.84C95.313 71.84 94.8756 72.0853 94.4916 72.576C94.1183 73.0667 93.8943 73.8453 93.8196 74.912L93.8676 74.976C93.8463 75.136 93.8303 75.312 93.8196 75.504C93.809 75.696 93.8036 75.888 93.8036 76.08C93.8036 76.8053 93.921 77.4293 94.1556 77.952C94.3903 78.4747 94.6943 78.8747 95.0676 79.152C95.4516 79.4187 95.8463 79.552 96.2516 79.552C96.5716 79.552 96.8756 79.504 97.1636 79.408C97.4516 79.3013 97.7183 79.1307 97.9636 78.896C98.209 78.6613 98.4223 78.3467 98.6036 77.952L98.9236 78.08C98.8063 78.432 98.6143 78.7733 98.3476 79.104C98.081 79.4347 97.745 79.7067 97.3396 79.92C96.9343 80.1227 96.465 80.224 95.9316 80.224C95.1636 80.224 94.5023 80.048 93.9476 79.696C93.4036 79.344 92.9823 78.8587 92.6836 78.24C92.3956 77.6107 92.2516 76.8907 92.2516 76.08C92.2516 75.1413 92.401 74.336 92.6996 73.664C92.9983 72.9813 93.4196 72.4587 93.9636 72.096C94.5076 71.7227 95.1423 71.536 95.8676 71.536ZM108.649 71.536C109.055 71.536 109.391 71.5893 109.657 71.696C109.935 71.8027 110.164 71.952 110.345 72.144C110.548 72.3573 110.692 72.624 110.777 72.944C110.863 73.264 110.905 73.696 110.905 74.24V78.512C110.905 78.96 110.996 79.264 111.177 79.424C111.369 79.584 111.684 79.664 112.121 79.664V80C111.94 79.9893 111.663 79.9787 111.289 79.968C110.916 79.9467 110.553 79.936 110.201 79.936C109.849 79.936 109.503 79.9467 109.161 79.968C108.831 79.9787 108.58 79.9893 108.409 80V79.664C108.793 79.664 109.065 79.584 109.225 79.424C109.385 79.264 109.465 78.96 109.465 78.512V73.888C109.465 73.5573 109.439 73.2533 109.385 72.976C109.332 72.6987 109.209 72.4747 109.017 72.304C108.836 72.1333 108.553 72.048 108.169 72.048C107.721 72.048 107.327 72.176 106.985 72.432C106.655 72.688 106.393 73.04 106.201 73.488C106.02 73.9253 105.929 74.416 105.929 74.96V78.512C105.929 78.96 106.009 79.264 106.169 79.424C106.329 79.584 106.601 79.664 106.985 79.664V80C106.815 79.9893 106.559 79.9787 106.217 79.968C105.887 79.9467 105.545 79.936 105.193 79.936C104.841 79.936 104.479 79.9467 104.105 79.968C103.732 79.9787 103.455 79.9893 103.273 80V79.664C103.711 79.664 104.02 79.584 104.201 79.424C104.393 79.264 104.489 78.96 104.489 78.512V73.504C104.489 73.024 104.404 72.672 104.233 72.448C104.063 72.2133 103.743 72.096 103.273 72.096V71.76C103.615 71.792 103.945 71.808 104.265 71.808C104.575 71.808 104.868 71.792 105.145 71.76C105.433 71.7173 105.695 71.6587 105.929 71.584V73.472C106.207 72.7467 106.591 72.2453 107.081 71.968C107.583 71.68 108.105 71.536 108.649 71.536ZM119.908 71.536C120.847 71.536 121.578 71.824 122.1 72.4C122.634 72.9653 122.9 73.8507 122.9 75.056H117.252L117.236 74.752H121.364C121.386 74.2293 121.343 73.7493 121.236 73.312C121.13 72.864 120.959 72.5067 120.724 72.24C120.5 71.9733 120.207 71.84 119.844 71.84C119.354 71.84 118.916 72.0853 118.532 72.576C118.159 73.0667 117.935 73.8453 117.86 74.912L117.908 74.976C117.887 75.136 117.871 75.312 117.86 75.504C117.85 75.696 117.844 75.888 117.844 76.08C117.844 76.8053 117.962 77.4293 118.196 77.952C118.431 78.4747 118.735 78.8747 119.108 79.152C119.492 79.4187 119.887 79.552 120.292 79.552C120.612 79.552 120.916 79.504 121.204 79.408C121.492 79.3013 121.759 79.1307 122.004 78.896C122.25 78.6613 122.463 78.3467 122.644 77.952L122.964 78.08C122.847 78.432 122.655 78.7733 122.388 79.104C122.122 79.4347 121.786 79.7067 121.38 79.92C120.975 80.1227 120.506 80.224 119.972 80.224C119.204 80.224 118.543 80.048 117.988 79.696C117.444 79.344 117.023 78.8587 116.724 78.24C116.436 77.6107 116.292 76.8907 116.292 76.08C116.292 75.1413 116.442 74.336 116.74 73.664C117.039 72.9813 117.46 72.4587 118.004 72.096C118.548 71.7227 119.183 71.536 119.908 71.536ZM134.578 71.584V78.272C134.578 78.752 134.663 79.1093 134.834 79.344C135.015 79.568 135.335 79.68 135.794 79.68V80.016C135.463 79.984 135.133 79.968 134.802 79.968C134.493 79.968 134.194 79.984 133.906 80.016C133.629 80.048 133.373 80.1067 133.138 80.192V78.304C132.871 78.9973 132.493 79.4933 132.002 79.792C131.522 80.08 131.026 80.224 130.514 80.224C130.141 80.224 129.815 80.1707 129.538 80.064C129.261 79.9573 129.031 79.808 128.85 79.616C128.647 79.4027 128.509 79.1253 128.434 78.784C128.359 78.4427 128.322 78.0213 128.322 77.52V73.504C128.322 73.024 128.237 72.672 128.066 72.448C127.895 72.2133 127.575 72.096 127.106 72.096V71.76C127.447 71.792 127.778 71.808 128.098 71.808C128.407 71.808 128.701 71.792 128.978 71.76C129.266 71.7173 129.527 71.6587 129.762 71.584V77.872C129.762 78.2027 129.783 78.5067 129.826 78.784C129.869 79.0613 129.975 79.2853 130.146 79.456C130.317 79.6267 130.594 79.712 130.978 79.712C131.394 79.712 131.762 79.584 132.082 79.328C132.413 79.072 132.669 78.7253 132.85 78.288C133.042 77.8507 133.138 77.36 133.138 76.816V73.504C133.138 73.024 133.053 72.672 132.882 72.448C132.711 72.2133 132.391 72.096 131.922 72.096V71.76C132.263 71.792 132.594 71.808 132.914 71.808C133.223 71.808 133.517 71.792 133.794 71.76C134.082 71.7173 134.343 71.6587 134.578 71.584ZM144.787 71.536C145.075 71.536 145.326 71.5947 145.539 71.712C145.763 71.8293 145.934 71.984 146.051 72.176C146.179 72.3573 146.243 72.5653 146.243 72.8C146.243 73.0667 146.158 73.3013 145.987 73.504C145.827 73.7067 145.608 73.808 145.331 73.808C145.107 73.808 144.91 73.7387 144.739 73.6C144.568 73.4507 144.483 73.2427 144.483 72.976C144.483 72.7733 144.536 72.6027 144.643 72.464C144.76 72.3147 144.888 72.1973 145.027 72.112C144.952 72.0053 144.84 71.952 144.691 71.952C144.36 71.952 144.056 72.0533 143.779 72.256C143.502 72.448 143.267 72.6987 143.075 73.008C142.883 73.3173 142.734 73.648 142.627 74C142.52 74.3413 142.467 74.6613 142.467 74.96V78.352C142.467 78.8747 142.616 79.2267 142.915 79.408C143.224 79.5787 143.64 79.664 144.163 79.664V80C143.918 79.9893 143.571 79.9787 143.123 79.968C142.675 79.9467 142.2 79.936 141.699 79.936C141.336 79.936 140.974 79.9467 140.611 79.968C140.259 79.9787 139.992 79.9893 139.811 80V79.664C140.248 79.664 140.558 79.584 140.739 79.424C140.931 79.264 141.027 78.96 141.027 78.512V73.504C141.027 73.024 140.942 72.672 140.771 72.448C140.6 72.2133 140.28 72.096 139.811 72.096V71.76C140.152 71.792 140.483 71.808 140.803 71.808C141.112 71.808 141.406 71.792 141.683 71.76C141.971 71.7173 142.232 71.6587 142.467 71.584V73.584C142.584 73.2747 142.75 72.9653 142.963 72.656C143.187 72.336 143.454 72.0693 143.763 71.856C144.072 71.6427 144.414 71.536 144.787 71.536Z" fill="black"/>
</svg>
